<?xml version="1.0" encoding="UTF-8"?>
<svg version="1.1" xmlns="http://www.w3.org/2000/svg" width="1024" height="1024">
<path d="M0 0 C1.6396875 0.2475 1.6396875 0.2475 3.3125 0.5 C7.09851888 1.01335849 10.73605881 0.99835995 14.54394531 0.98413086 C19.67007857 0.9661104 24.79620766 0.95456828 29.92236328 0.94506836 C32.13363115 0.94003906 34.34489569 0.93321485 36.55615234 0.92456055 C39.75098482 0.91238839 42.94577351 0.90674891 46.140625 0.90234375 C47.12315247 0.89718246 48.10567993 0.89202118 49.11798096 0.88670349 C59.2972219 0.88587745 59.2972219 0.88587745 64 2 C65.8017961 4.76821401 66.86333919 6.9543931 68 10 C68.35610352 10.88606934 68.71220703 11.77213867 69.07910156 12.68505859 C83.4149285 49.17126325 91.99819042 87.86314945 97.3125 126.625 C97.53365479 128.23652954 97.53365479 128.23652954 97.75927734 129.88061523 C100.5814424 152.12873826 101.34425388 174.3425567 101.25 196.75 C101.24534729 198.72641983 101.24534729 198.72641983 101.24060059 200.74276733 C101.1933534 219.56120369 101.03007004 238.27420951 99 257 C98.87641113 258.17852539 98.75282227 259.35705078 98.62548828 260.57128906 C88.13304221 357.40702767 54.25766226 448.92799511 -13 542 C-13.48807129 542.64114746 -13.97614258 543.28229492 -14.47900391 543.94287109 C-20.15104362 551.3562407 -26.06538154 558.5290467 -32.20556641 565.55981445 C-34.88857781 568.57998821 -34.88857781 568.57998821 -37 572 C-37.66 572 -38.32 572 -39 572 C-39.268125 572.58265625 -39.53625 573.1653125 -39.8125 573.765625 C-41.01480991 576.02786601 -42.33825913 577.80576318 -44 579.75 C-44.515625 580.36359375 -45.03125 580.9771875 -45.5625 581.609375 C-47 583 -47 583 -49 583 C-49.22365234 583.54817383 -49.44730469 584.09634766 -49.67773438 584.66113281 C-51.39713029 587.70245719 -53.69623999 589.98233621 -56.15625 592.421875 C-56.65918579 592.92672424 -57.16212158 593.43157349 -57.68029785 593.95172119 C-58.74029986 595.01307997 -59.80281488 596.07193419 -60.86767578 597.12841797 C-62.50140046 598.75139124 -64.12413294 600.38481068 -65.74609375 602.01953125 C-66.77800476 603.05012146 -67.81053559 604.08009152 -68.84375 605.109375 C-69.33025024 605.59992371 -69.81675049 606.09047241 -70.31799316 606.59588623 C-73.77005651 610 -73.77005651 610 -76 610 C-76 610.66 -76 611.32 -76 612 C-77.22265625 613.26953125 -77.22265625 613.26953125 -79.0625 614.8125 C-81.79111841 617.12206358 -84.50448262 619.44001386 -87.16796875 621.82421875 C-96.60776559 630.22542652 -106.52329592 637.86252605 -116.71679688 645.32519531 C-118.67970805 646.76505531 -120.63092335 648.21872478 -122.578125 649.6796875 C-189.20595261 699.13477809 -278.21114525 729.87890917 -361.54003906 727.08251953 C-364.28421617 726.99046595 -367.02839613 726.93186459 -369.7734375 726.87109375 C-460.64136429 724.45343388 -548.76141752 691.05743707 -619.4921875 634.20800781 C-620.84164165 633.12687129 -622.20141646 632.05864625 -623.5625 630.9921875 C-628.7182641 626.93880717 -633.71988261 622.71772433 -638.6875 618.4375 C-639.61453735 617.64206787 -639.61453735 617.64206787 -640.56030273 616.83056641 C-644.32600176 613.56370547 -647.89915761 610.16917101 -651.37792969 606.59790039 C-653.03606894 604.96446851 -654.76647828 603.47928895 -656.5625 602 C-662.70433311 596.72695272 -668.02654059 590.5755084 -673.48632812 584.61572266 C-674.75669156 583.25971214 -676.08339795 581.95679262 -677.421875 580.66796875 C-679 579 -679 579 -679 577 C-679.99 576.67 -680.98 576.34 -682 576 C-683.5859375 574.27734375 -683.5859375 574.27734375 -685.375 571.9375 C-686.07625 571.03386719 -686.7775 570.13023437 -687.5 569.19921875 C-687.89316406 568.69181152 -688.28632812 568.1844043 -688.69140625 567.66162109 C-690.12369081 565.84294037 -691.58879674 564.05480449 -693.0625 562.26953125 C-699.64323644 554.29427971 -705.88993488 546.19309597 -711.79833984 537.70898438 C-713.01049294 535.98507708 -714.24505746 534.27973602 -715.48828125 532.578125 C-729.0638625 513.96124188 -741.24376678 493.85495115 -751.64111328 473.30249023 C-753.1844964 470.0586606 -753.1844964 470.0586606 -756 468 C-756.35150736 466.33707142 -756.68104706 464.66947833 -757 463 C-757.80079927 461.05256254 -758.65838647 459.12802671 -759.5546875 457.22265625 C-760.34552734 455.51456787 -760.34552734 455.51456787 -761.15234375 453.77197266 C-761.43319824 453.16830872 -761.71405273 452.56464478 -762.00341797 451.94268799 C-767.15101551 440.83822425 -771.83234579 429.63340458 -776 418.125 C-776.4316748 416.93398682 -776.86334961 415.74297363 -777.30810547 414.51586914 C-788.910495 382.06847033 -797.16399736 349.10327591 -802.75 315.125 C-802.93643066 314.00077637 -803.12286133 312.87655273 -803.31494141 311.71826172 C-803.80426831 308.60807358 -804.24394322 305.49458985 -804.66769791 302.37492371 C-804.88991973 300.78673064 -805.12361194 299.20010188 -805.36852646 297.61524963 C-808.98685339 273.875191 -808.39198956 249.98580869 -808.30418181 226.03989244 C-808.28519829 219.97417116 -808.28364775 213.90844355 -808.28010559 207.84269714 C-808.2708479 196.40065522 -808.24632077 184.95870114 -808.21605712 173.51669759 C-808.18231556 160.47159205 -808.16597785 147.42648192 -808.15097082 134.38134348 C-808.1197643 107.58751396 -808.06712839 80.79376194 -808 54 C-773.52293656 53.27532486 -739.06451486 52.85433931 -704.57995605 52.93133545 C-699.27987106 52.9419436 -693.97978025 52.9462094 -688.6796875 52.95117188 C-678.45311127 52.9616005 -668.22655845 52.97843963 -658 53 C-659.01399306 65.48983311 -659.01399306 65.48983311 -659.6484375 71.01171875 C-663.59186504 106.73085605 -665.28706206 142.44830556 -665.31052017 178.37215042 C-665.31246358 180.64491004 -665.31756463 182.91764578 -665.3230896 185.19039917 C-665.36915595 210.75617616 -664.35311063 236.2172717 -661.3125 261.625 C-661.23140991 262.30670258 -661.15031982 262.98840515 -661.06677246 263.69076538 C-655.81826561 307.15040459 -645.0092189 350.46431262 -626 390 C-625.67708984 390.68674805 -625.35417969 391.37349609 -625.02148438 392.08105469 C-612.4394436 418.82114756 -595.40203737 443.88017691 -575.28515625 465.52734375 C-573.19581748 467.78811545 -571.18453823 470.09540117 -569.1875 472.4375 C-566.67607803 475.33122274 -564.0532594 477.66988099 -561 480 C-559.32482286 481.65811252 -557.65944655 483.32614436 -556 485 C-504.52778135 535.63091939 -431.51672543 564.27480973 -359.67749023 564.18334961 C-301.66521805 563.63283339 -245.02909754 543.67814997 -198 510 C-196.82473755 509.1639624 -196.82473755 509.1639624 -195.62573242 508.31103516 C-185.49028556 501.06553025 -176.01222654 493.59999535 -167 485 C-165.73616711 483.90850795 -164.46589692 482.82439741 -163.1875 481.75 C-158.95289146 478.07519046 -154.98352508 474.12978584 -151 470.1875 C-150.31574951 469.5162207 -149.63149902 468.84494141 -148.92651367 468.15332031 C-148.29076416 467.5187793 -147.65501465 466.88423828 -147 466.23046875 C-146.4225 465.65707764 -145.845 465.08368652 -145.25 464.49291992 C-143.78600969 463.06894512 -143.78600969 463.06894512 -144 461 C-143.42121094 460.76539063 -142.84242188 460.53078125 -142.24609375 460.2890625 C-139.46887073 458.69517798 -138.04364446 456.89230832 -136.0625 454.375 C-134.88107422 452.88806641 -134.88107422 452.88806641 -133.67578125 451.37109375 C-133.2473291 450.8282373 -132.81887695 450.28538086 -132.37744141 449.72607422 C-130.93246158 447.91536748 -129.46042317 446.12987135 -127.98046875 444.34765625 C-79.67548743 386.04420247 -46.74927173 313.58106399 -34 239 C-33.85965332 238.21786133 -33.71930664 237.43572266 -33.57470703 236.62988281 C-21.79493821 170.11373234 -32.54474615 101.19403267 -65 42 C-65.66544043 40.76175951 -66.33081077 39.52348135 -66.99609375 38.28515625 C-73.40064243 26.66110012 -80.84071567 15.28171158 -89.89404297 5.54077148 C-91 4 -91 4 -91 1 C-79.57804131 0.97685387 -68.15608818 0.95907329 -56.73411083 0.94818783 C-51.43072368 0.94296399 -46.12735254 0.93587534 -40.82397461 0.92456055 C-35.70819758 0.91371401 -30.59243597 0.9077194 -25.47664833 0.90512276 C-23.52257354 0.90327171 -21.56849962 0.8996572 -19.61443138 0.89426994 C-16.88250258 0.88703612 -14.15063797 0.88601006 -11.41870117 0.88647461 C-10.20058243 0.8810817 -10.20058243 0.8810817 -8.95785522 0.87557983 C-5.70830577 0.88157933 -3.10546315 0.96484562 0 2 C0 1.34 0 0.68 0 0 Z " fill="#FEA837" transform="translate(808,283)"/>
<path d="M0 0 C10.83460108 0.8357046 21.67603294 0.71959013 32.53710938 0.70068359 C36.23832214 0.69528395 39.93941573 0.70067682 43.640625 0.70703125 C46.01041693 0.70637109 48.38020879 0.7050912 50.75 0.703125 C52.3969989 0.70616135 52.3969989 0.70616135 54.07727051 0.70925903 C60.4528258 0.69263524 60.4528258 0.69263524 66.77929688 -0.00048828 C69.71875 -0.4296875 69.71875 -0.4296875 72.71875 0.5703125 C74.17825096 0.65901633 75.64149046 0.69229742 77.10368347 0.69056702 C77.99784816 0.69194451 78.89201284 0.69332201 79.81327343 0.69474125 C80.79552552 0.69114314 81.77777761 0.68754503 82.78979492 0.68383789 C83.84084821 0.68395843 84.89190149 0.68407896 85.97480488 0.68420315 C89.38296423 0.68345572 92.79106916 0.67583514 96.19921875 0.66796875 C98.30098443 0.66649881 100.40275048 0.66547842 102.5045166 0.66491699 C110.30509998 0.65967019 118.10567552 0.64570903 125.90625 0.6328125 C143.334375 0.6121875 160.7625 0.5915625 178.71875 0.5703125 C178.71875 67.8903125 178.71875 135.2103125 178.71875 204.5703125 C87.70322609 205.21638543 87.70322609 205.21638543 60.48046875 205.3515625 C59.43380216 205.35680624 58.38713558 205.36204998 57.30875182 205.36745262 C15.41760791 205.57511948 -26.47302165 205.60965419 -68.36456421 205.60199571 C-70.75816228 205.60156314 -73.15176034 205.60118311 -75.54535842 205.60081291 C-107.45839282 205.5956743 -139.37141512 205.58014164 -171.28443319 205.54709959 C-183.48431275 205.5345316 -195.68419253 205.52510297 -207.8840763 205.51769686 C-215.70372032 205.51275307 -223.52334641 205.50447907 -231.34298146 205.49160656 C-237.2650786 205.48212357 -243.18717243 205.47787875 -249.10927689 205.47546673 C-251.5015534 205.47363596 -253.89382942 205.47009135 -256.28610027 205.46457386 C-284.88299915 205.29693372 -284.88299915 205.29693372 -313.28125 208.2578125 C-314.35810059 208.43006348 -315.43495117 208.60231445 -316.54443359 208.77978516 C-356.85342506 215.57396785 -395.1166942 233.62455383 -425.10546875 261.546875 C-427.22043332 263.51375408 -429.39310874 265.38787985 -431.59375 267.2578125 C-434.03057827 269.36480745 -436.14188269 271.49425795 -438.15625 274.0078125 C-438.8575 274.8534375 -439.55875 275.6990625 -440.28125 276.5703125 C-440.94125 276.5703125 -441.60125 276.5703125 -442.28125 276.5703125 C-442.49910156 277.09238281 -442.71695313 277.61445313 -442.94140625 278.15234375 C-444.80259663 281.51116837 -447.27288872 284.31755457 -449.71875 287.2578125 C-466.05937255 307.38110066 -477.83044452 330.12827613 -486.28125 354.5703125 C-486.55275879 355.33988281 -486.82426758 356.10945313 -487.10400391 356.90234375 C-498.40710883 389.24081319 -502.50624426 422.97646666 -502.53125 457.0703125 C-502.53192474 457.91081146 -502.53259949 458.75131042 -502.53329468 459.61727905 C-502.46446461 514.26256134 -491.22962168 571.66384454 -458.28125 616.5703125 C-457.89614258 617.0952832 -457.51103516 617.62025391 -457.11425781 618.16113281 C-450.58255333 627.00301985 -443.6126118 635.39829225 -435.71875 643.0703125 C-433.28125 645.5703125 -433.28125 645.5703125 -433.28125 647.5703125 C-432.71277344 647.81652344 -432.14429688 648.06273437 -431.55859375 648.31640625 C-428.90073478 649.77982431 -427.03666321 651.53604726 -424.84375 653.6328125 C-419.06477012 658.91331312 -412.84064438 663.33346231 -406.28125 667.5703125 C-405.70777832 667.9415625 -405.13430664 668.3128125 -404.54345703 668.6953125 C-379.82948928 684.50785949 -352.31851843 694.49194641 -323.28125 698.5703125 C-322.16580811 698.74167725 -322.16580811 698.74167725 -321.02783203 698.91650391 C-303.52285966 701.60131562 -285.88494439 700.86232677 -268.28125 699.5703125 C-268.28125 700.2303125 -268.28125 700.8903125 -268.28125 701.5703125 C-270.47355243 703.37145723 -272.66608089 705.04525216 -274.96875 706.6953125 C-275.65356445 707.1895874 -276.33837891 707.6838623 -277.04394531 708.19311523 C-283.27213849 712.64213373 -289.64209839 716.75967519 -296.28125 720.5703125 C-297.26109863 721.14797363 -297.26109863 721.14797363 -298.26074219 721.73730469 C-345.80226646 749.5304721 -408.61036024 753.11560404 -461.28125 739.5703125 C-489.74110016 731.60384696 -515.36901437 719.23218296 -538.28125 700.5703125 C-539.07909912 699.92690918 -539.07909912 699.92690918 -539.89306641 699.27050781 C-552.75931893 688.84926815 -564.08847252 677.492703 -574.02441406 664.23730469 C-575.21387623 662.65967305 -576.43041732 661.10256414 -577.6484375 659.546875 C-583.5557236 651.92259225 -588.52719064 643.94086758 -593.28125 635.5703125 C-593.64186523 634.94624512 -594.00248047 634.32217773 -594.37402344 633.67919922 C-605.30454224 614.63181269 -613.40634641 593.70453897 -619.28125 572.5703125 C-619.52149902 571.72662109 -619.76174805 570.88292969 -620.00927734 570.01367188 C-630.62398126 532.23882678 -634.56838761 492.68141096 -635.28125 453.5703125 C-635.29784668 452.74885742 -635.31444336 451.92740234 -635.33154297 451.08105469 C-635.42299758 445.90765902 -635.38369458 440.74326668 -635.28125 435.5703125 C-635.25442139 434.07153564 -635.25442139 434.07153564 -635.22705078 432.54248047 C-633.28234506 336.03113586 -610.53365832 236.8959277 -541.28125 133.5703125 C-540.12496094 132.06404297 -540.12496094 132.06404297 -538.9453125 130.52734375 C-534.98283405 125.47635837 -530.7637834 120.69028913 -526.44140625 115.9453125 C-524.48874371 113.79844302 -522.56479101 111.63138184 -520.65625 109.4453125 C-520.09550781 108.80464844 -519.53476562 108.16398437 -518.95703125 107.50390625 C-517.8198794 106.19180796 -516.69254886 104.8711457 -515.57421875 103.54296875 C-512.06730963 99.4185903 -508.40933907 95.80468148 -504.2734375 92.3125 C-501.59980135 89.97437897 -499.16484424 87.43551106 -496.7265625 84.85546875 C-495.28125 83.5703125 -495.28125 83.5703125 -493.28125 83.5703125 C-493.28125 82.9103125 -493.28125 82.2503125 -493.28125 81.5703125 C-491.19205391 79.78215331 -489.09475193 78.10420257 -486.90625 76.4453125 C-485.60375523 75.44324289 -484.30167337 74.44063636 -483 73.4375 C-482.35933594 72.94604492 -481.71867188 72.45458984 -481.05859375 71.94824219 C-478.80381523 70.20016939 -476.60652695 68.3862945 -474.40625 66.5703125 C-457.79033289 53.30459656 -439.28362929 42.64406636 -420.14599609 33.47021484 C-418.36598423 32.61120414 -416.5986169 31.72613757 -414.83203125 30.83984375 C-391.99394209 19.66375756 -367.2579604 12.41727793 -342.40625 7.3828125 C-341.26913574 7.14473877 -340.13202148 6.90666504 -338.96044922 6.66137695 C-315.4007152 2.11423035 -291.22033664 1.094011 -267.2890625 0.8828125 C-265.93482948 0.86702051 -264.58060301 0.85065797 -263.22638321 0.83377075 C-214.87476581 0.23465802 -166.51024984 0.50245282 -118.15625 0.5703125 C-102.16810266 0.59252744 -86.17996087 0.61290572 -70.19180119 0.62373066 C-63.31800487 0.62867758 -56.4442386 0.6384736 -49.57045436 0.65216064 C-45.33198966 0.65961792 -41.09352904 0.66293419 -36.85505867 0.6651268 C-34.89749086 0.66699579 -32.93992381 0.67059071 -30.98236275 0.67605972 C-28.30868789 0.68329662 -25.63507829 0.6843127 -22.96139526 0.68383789 C-22.19316401 0.68743285 -21.42493276 0.69102781 -20.63342178 0.69473171 C-13.68027267 0.68153559 -6.93354078 -0.68123845 0 0 Z " fill="#FEA838" transform="translate(845.28125,17.4296875)"/>
<path d="M0 0 C0.99 0.33 1.98 0.66 3 1 C2.70343506 2.1770752 2.70343506 2.1770752 2.40087891 3.37792969 C0.4748692 11.31492511 -0.78934992 19.13089976 -1.625 27.25 C-1.80675781 28.88001953 -1.80675781 28.88001953 -1.9921875 30.54296875 C-3.70339729 46.48325996 -4.20389953 62.35520927 -4.1875 78.375 C-4.18756042 79.28809937 -4.18762085 80.20119873 -4.18768311 81.14196777 C-4.16888612 101.18480148 -3.4384167 121.21081451 0 141 C-6.5106535 140.43129834 -12.48334354 139.27065237 -18.75 137.4375 C-19.65685547 137.17356445 -20.56371094 136.90962891 -21.49804688 136.63769531 C-48.29123854 128.64041761 -72.84274478 116.58312949 -96 101 C-95.44925136 95.9173768 -93.70557812 91.85834056 -91.375 87.375 C-91.0138208 86.67133301 -90.6526416 85.96766602 -90.28051758 85.24267578 C-89.19961361 83.15487313 -88.10308486 81.07615415 -87 79 C-86.43925781 77.9378125 -85.87851562 76.875625 -85.30078125 75.78125 C-78.0946515 62.79974749 -68.2194106 51.68103507 -58 41 C-57.11054688 40.06285156 -56.22109375 39.12570312 -55.3046875 38.16015625 C-53 36 -53 36 -51 36 C-50.67 35.01 -50.34 34.02 -50 33 C-47.9750149 31.19144816 -45.96160096 29.52362539 -43.8125 27.875 C-43.18029541 27.38708984 -42.54809082 26.89917969 -41.89672852 26.39648438 C-31.16276896 18.22178215 -19.88232562 11.69740566 -7.84350586 5.62890625 C-6.97089111 5.18546875 -6.09827637 4.74203125 -5.19921875 4.28515625 C-4.41377686 3.89207275 -3.62833496 3.49898926 -2.8190918 3.09399414 C-0.83884591 2.12436672 -0.83884591 2.12436672 0 0 Z " fill="#FEA837" transform="translate(501,323)"/>
<path d="M0 0 C31.55448124 4.50165833 62.06944474 15.89930372 88.00073242 34.54614258 C91.17981434 37.1144819 91.17981434 37.1144819 95 38 C95.53625 38.680625 96.0725 39.36125 96.625 40.0625 C100.24152567 44.53557122 104.65744447 48.03225336 109.05078125 51.72265625 C118.62381628 59.88297154 118.62381628 59.88297154 122 65 C122 66.32 122 67.64 122 69 C120.97737061 69.13462646 120.97737061 69.13462646 119.93408203 69.27197266 C78.15882388 74.86942507 38.2364166 86.28354493 0.36914062 104.95288086 C-0.44232422 105.3525708 -1.25378906 105.75226074 -2.08984375 106.1640625 C-3.15513306 106.69700928 -3.15513306 106.69700928 -4.24194336 107.24072266 C-6 108 -6 108 -8 108 C-7.93941406 107.30551758 -7.87882813 106.61103516 -7.81640625 105.89550781 C-7.53899767 102.68076917 -7.26946841 99.46541357 -7 96.25 C-6.90460937 95.15816406 -6.80921875 94.06632812 -6.7109375 92.94140625 C-6.16788746 86.38601648 -5.92277772 79.93235497 -6.0625 73.35449219 C-6 71 -6 71 -5 69 C-4.79876041 67.06847254 -4.65374699 65.13098501 -4.53515625 63.19262695 C-4.45837646 61.97408524 -4.38159668 60.75554352 -4.30249023 59.50007629 C-4.22248732 58.16281165 -4.14249073 56.82554662 -4.0625 55.48828125 C-3.97710179 54.11782519 -3.89123906 52.747398 -3.80493164 51.3769989 C-3.57811617 47.76149926 -3.35601817 44.14572729 -3.13537598 40.52984619 C-2.78311613 34.76012213 -2.42634999 28.99068889 -2.06466675 23.22154808 C-1.93979721 21.21273704 -1.81861882 19.20369764 -1.69750977 17.19465637 C-1.62072998 15.96035385 -1.5439502 14.72605133 -1.46484375 13.4543457 C-1.399021 12.37449905 -1.33319824 11.2946524 -1.26538086 10.18208313 C-0.98013082 6.76175604 -0.51595565 3.39254547 0 0 Z " fill="#FEA837" transform="translate(566,316)"/>
<path d="M0 0 C0.66 0 1.32 0 2 0 C3.01815654 1.65563735 4.01383014 3.3251129 5 5 C6.62127689 6.94664464 8.26088106 8.85295384 9.9375 10.75 C19.8492782 22.23048875 28.40290644 34.88654551 36 48 C36.62406738 49.06395996 36.62406738 49.06395996 37.26074219 50.14941406 C42.90610082 59.83471976 47.9651215 69.66095984 52.3125 80 C52.715896 80.9377124 53.11929199 81.8754248 53.53491211 82.84155273 C54.06870483 84.15748413 54.06870483 84.15748413 54.61328125 85.5 C54.93079346 86.2734375 55.24830566 87.046875 55.57543945 87.84375 C56 90 56 90 55.2644043 92.15136719 C53.29101611 95.0365758 50.46604487 96.53233654 47.5 98.25 C46.83709961 98.63768555 46.17419922 99.02537109 45.49121094 99.42480469 C31.68178307 107.31498919 17.54031727 112.67614354 2 116 C0.8860083 116.24556641 0.8860083 116.24556641 -0.25048828 116.49609375 C-20.97565904 120.90434804 -50.25139593 123.1946942 -70 114 C-69.236875 113.13375 -68.47375 112.2675 -67.6875 111.375 C-55.69159969 97.96105151 -55.69159969 97.96105151 -46 83 C-45.34 83 -44.68 83 -44 83 C-43.72542969 82.42596436 -43.45085938 81.85192871 -43.16796875 81.26049805 C-42.00406033 79.00785841 -40.7144466 76.94383335 -39.3125 74.83203125 C-38.78358154 74.02991211 -38.25466309 73.22779297 -37.7097168 72.40136719 C-37.14551025 71.54704102 -36.58130371 70.69271484 -36 69.8125 C-24.54372144 52.29878755 -14.75957337 34.42875266 -6.125 15.375 C-5.74335693 14.53348389 -5.36171387 13.69196777 -4.96850586 12.82495117 C-3.08026364 8.60474891 -1.36116267 4.4273607 0 0 Z " fill="#FEA837" transform="translate(582,525)"/>
<path d="M0 0 C0.65266846 0.36569092 1.30533691 0.73138184 1.9777832 1.1081543 C40.33037419 22.34504934 81.62164108 35.24316104 125 41 C123.37653935 45.29336336 121.21191623 48.76007937 118.5 52.4375 C117.59610575 53.68080902 116.69246724 54.924304 115.7890625 56.16796875 C115.32661133 56.80138184 114.86416016 57.43479492 114.38769531 58.08740234 C113.04332452 59.94028777 111.71735949 61.8047174 110.3984375 63.67578125 C99.6446365 78.9270783 87.72157326 93.34454289 75 107 C74.51321777 107.53141602 74.02643555 108.06283203 73.52490234 108.61035156 C71.95006528 110.31939383 70.3532668 112.00513838 68.75 113.6875 C68.25443604 114.22963135 67.75887207 114.7717627 67.24829102 115.33032227 C65.796875 116.82421875 65.796875 116.82421875 63 119 C57.56504972 118.97577288 53.99311349 115.31477372 50 112 C49.21238281 111.34773437 48.42476563 110.69546875 47.61328125 110.0234375 C26.12255698 91.4678671 12.85806895 65.57420685 4 39 C3.67 38.34 3.34 37.68 3 37 C1.56864728 30.15596893 0.70188347 23.18292328 -0.1875 16.25 C-0.28345459 15.55382568 -0.37940918 14.85765137 -0.47827148 14.14038086 C-1.08005562 9.21949932 -0.77435619 4.89876396 0 0 Z " fill="#FEA837" transform="translate(391,486)"/>
<path d="M0 0 C10.99927485 21.99854969 -1.34739952 63.04070096 -8.57568359 84.72729492 C-13.34404852 98.38651478 -19.67732988 111.52750814 -27 124 C-27.66 124 -28.32 124 -29 124 C-29.37769531 123.27039063 -29.75539063 122.54078125 -30.14453125 121.7890625 C-45.01846766 93.57386696 -63.49623121 67.72187098 -85.02734375 44.21875 C-86.43449235 42.63605613 -87.78755149 41.00458176 -89.1015625 39.34375 C-91.1716063 36.78814037 -93.4119001 35.01998041 -96 33 C-97.66666667 31.33333333 -99.33333333 29.66666667 -101 28 C-102.9694164 26.29192796 -104.97771879 24.64604284 -107 23 C-104.68280719 20.34342037 -102.65751373 19.29266542 -99.3359375 18.16796875 C-98.39186035 17.84731445 -97.4477832 17.52666016 -96.47509766 17.19628906 C-95.45206543 16.86338867 -94.4290332 16.53048828 -93.375 16.1875 C-91.77277588 15.6630127 -91.77277588 15.6630127 -90.13818359 15.12792969 C-70.1160762 8.7201531 -49.81797244 4.75370006 -29 2 C-27.65808594 1.82210938 -27.65808594 1.82210938 -26.2890625 1.640625 C-17.5234879 0.50784305 -8.85498881 -0.35107885 0 0 Z " fill="#FEA837" transform="translate(715,444)"/>
<path d="M0 0 C1.65 0 3.3 0 5 0 C5 0.33 5 0.66 5 1 C3.35 1 1.7 1 0 1 C0 0.67 0 0.34 0 0 Z " fill="#FCAC3B" transform="translate(787,223)"/>
<path d="M0 0 C1.65 0 3.3 0 5 0 C5 0.33 5 0.66 5 1 C3.35 1 1.7 1 0 1 C0 0.67 0 0.34 0 0 Z " fill="#FCAC3A" transform="translate(706,223)"/>
<path d="M0 0 C4 1 4 1 4 1 Z " fill="#F6A336" transform="translate(1020,223)"/>
<path d="M0 0 C4 1 4 1 4 1 Z " fill="#FBAD3B" transform="translate(821,223)"/>
<path d="M0 0 C4 1 4 1 4 1 Z " fill="#FBA93A" transform="translate(588,223)"/>
<path d="M0 0 C0.66 0 1.32 0 2 0 C1.67 0.66 1.34 1.32 1 2 C0.67 1.34 0.34 0.68 0 0 Z " fill="#FDAC3E" transform="translate(264,676)"/>
<path d="M0 0 C0.66 0 1.32 0 2 0 C1.67 0.66 1.34 1.32 1 2 C0.67 1.34 0.34 0.68 0 0 Z " fill="#FFAE3D" transform="translate(484,462)"/>
<path d="M0 0 C0.99 0.495 0.99 0.495 2 1 C1.01 1.495 1.01 1.495 0 2 C0 1.34 0 0.68 0 0 Z " fill="#FFAD3D" transform="translate(482,461)"/>
<path d="M0 0 C3 1 3 1 3 1 Z " fill="#FBAB3A" transform="translate(945,223)"/>
<path d="M0 0 C3 1 3 1 3 1 Z " fill="#F9A938" transform="translate(936,223)"/>
<path d="M0 0 C3 1 3 1 3 1 Z " fill="#FBAC3A" transform="translate(667,223)"/>
<path d="M0 0 C2 1 2 1 2 1 Z " fill="#FFAB3C" transform="translate(513,1005)"/>
<path d="M0 0 C2 1 2 1 2 1 Z " fill="#F5A537" transform="translate(709,915)"/>
<path d="M0 0 C2 1 2 1 2 1 Z " fill="#FDAC3C" transform="translate(568,816)"/>
<path d="M0 0 C2 1 2 1 2 1 Z " fill="#FDA93A" transform="translate(478,704)"/>
<path d="M0 0 C2 1 2 1 2 1 Z " fill="#FDA93A" transform="translate(24,685)"/>
<path d="" fill="#FEAC3B" transform="translate(0,0)"/>
<path d="" fill="#FBAA3B" transform="translate(0,0)"/>
<path d="M0 0 C2 1 2 1 2 1 Z " fill="#FFAC3A" transform="translate(235,622)"/>
<path d="" fill="#FFA93C" transform="translate(0,0)"/>
<path d="" fill="#FEAC3D" transform="translate(0,0)"/>
<path d="" fill="#FEAB3B" transform="translate(0,0)"/>
<path d="" fill="#FFAB3C" transform="translate(0,0)"/>
<path d="" fill="#FAA839" transform="translate(0,0)"/>
<path d="" fill="#FFAC3D" transform="translate(0,0)"/>
<path d="" fill="#FFAD3C" transform="translate(0,0)"/>
<path d="" fill="#FFAE3C" transform="translate(0,0)"/>
<path d="" fill="#FFAB3A" transform="translate(0,0)"/>
<path d="M0 0 C2 1 2 1 2 1 Z " fill="#FFAC3A" transform="translate(507,231)"/>
<path d="M0 0 C2 1 2 1 2 1 Z " fill="#F6A538" transform="translate(1016,223)"/>
<path d="M0 0 C2 1 2 1 2 1 Z " fill="#F7A739" transform="translate(959,223)"/>
<path d="M0 0 C2 1 2 1 2 1 Z " fill="#F9A73A" transform="translate(933,223)"/>
<path d="M0 0 C2 1 2 1 2 1 Z " fill="#FAAA3C" transform="translate(911,223)"/>
<path d="M0 0 C2 1 2 1 2 1 Z " fill="#F9AA3A" transform="translate(908,223)"/>
<path d="M0 0 C2 1 2 1 2 1 Z " fill="#FBAB3C" transform="translate(855,223)"/>
<path d="M0 0 C2 1 2 1 2 1 Z " fill="#FDAD3A" transform="translate(735,223)"/>
<path d="M0 0 C2 1 2 1 2 1 Z " fill="#FBA93A" transform="translate(717,223)"/>
<path d="M0 0 C2 1 2 1 2 1 Z " fill="#FDAC3C" transform="translate(683,223)"/>
<path d="M0 0 C2 1 2 1 2 1 Z " fill="#FCAB3B" transform="translate(664,223)"/>
<path d="M0 0 C2 1 2 1 2 1 Z " fill="#FEAB3B" transform="translate(595,223)"/>
<path d="M0 0 C2 1 2 1 2 1 Z " fill="#FEAB3C" transform="translate(580,223)"/>
<path d="M0 0 C2 1 2 1 2 1 Z " fill="#FBAA3C" transform="translate(410,56)"/>
<path d="" fill="#1C0E00" transform="translate(0,0)"/>
<path d="" fill="#FFAC3A" transform="translate(0,0)"/>
<path d="" fill="#FFAC3B" transform="translate(0,0)"/>
<path d="" fill="#FFAC3C" transform="translate(0,0)"/>
<path d="" fill="#FFAC3B" transform="translate(0,0)"/>
<path d="" fill="#FFAC3A" transform="translate(0,0)"/>
<path d="" fill="#FFA93D" transform="translate(0,0)"/>
<path d="" fill="#FDA93C" transform="translate(0,0)"/>
<path d="" fill="#FFA73D" transform="translate(0,0)"/>
<path d="" fill="#FFAB3C" transform="translate(0,0)"/>
<path d="" fill="#FEAF3C" transform="translate(0,0)"/>
<path d="" fill="#FFAC3A" transform="translate(0,0)"/>
<path d="" fill="#FBA63B" transform="translate(0,0)"/>
<path d="" fill="#FBA739" transform="translate(0,0)"/>
<path d="" fill="#FBA938" transform="translate(0,0)"/>
<path d="" fill="#FAA937" transform="translate(0,0)"/>
<path d="" fill="#FAA537" transform="translate(0,0)"/>
<path d="" fill="#FAA83A" transform="translate(0,0)"/>
<path d="" fill="#FAAB38" transform="translate(0,0)"/>
<path d="" fill="#FEA839" transform="translate(0,0)"/>
<path d="" fill="#FBAA3B" transform="translate(0,0)"/>
<path d="" fill="#F8AA37" transform="translate(0,0)"/>
<path d="" fill="#F6A637" transform="translate(0,0)"/>
<path d="" fill="#F7A337" transform="translate(0,0)"/>
<path d="" fill="#301B01" transform="translate(0,0)"/>
<path d="" fill="#F7A438" transform="translate(0,0)"/>
<path d="" fill="#F4A638" transform="translate(0,0)"/>
<path d="" fill="#F8A538" transform="translate(0,0)"/>
<path d="" fill="#F9A536" transform="translate(0,0)"/>
<path d="" fill="#F0A035" transform="translate(0,0)"/>
<path d="" fill="#F7A838" transform="translate(0,0)"/>
<path d="" fill="#F1A236" transform="translate(0,0)"/>
<path d="" fill="#FFAB3D" transform="translate(0,0)"/>
<path d="" fill="#FFAE3B" transform="translate(0,0)"/>
<path d="" fill="#F6A43A" transform="translate(0,0)"/>
<path d="" fill="#F5A539" transform="translate(0,0)"/>
<path d="" fill="#FFB13E" transform="translate(0,0)"/>
<path d="" fill="#FFAF3C" transform="translate(0,0)"/>
<path d="" fill="#FFAD3B" transform="translate(0,0)"/>
<path d="" fill="#FFAE3E" transform="translate(0,0)"/>
<path d="" fill="#FDAD39" transform="translate(0,0)"/>
<path d="" fill="#FEA93C" transform="translate(0,0)"/>
<path d="" fill="#FFAA3D" transform="translate(0,0)"/>
<path d="" fill="#FDAE3C" transform="translate(0,0)"/>
<path d="" fill="#FFAC3A" transform="translate(0,0)"/>
<path d="" fill="#F9A73A" transform="translate(0,0)"/>
<path d="" fill="#FEAC3A" transform="translate(0,0)"/>
<path d="" fill="#FDAD3B" transform="translate(0,0)"/>
<path d="" fill="#FFAC3D" transform="translate(0,0)"/>
<path d="" fill="#F2A137" transform="translate(0,0)"/>
<path d="" fill="#FBAE3D" transform="translate(0,0)"/>
<path d="" fill="#FFAC3B" transform="translate(0,0)"/>
<path d="" fill="#F8A537" transform="translate(0,0)"/>
<path d="" fill="#FEAE3B" transform="translate(0,0)"/>
<path d="" fill="#FAA738" transform="translate(0,0)"/>
<path d="" fill="#FAA739" transform="translate(0,0)"/>
<path d="" fill="#F7A737" transform="translate(0,0)"/>
<path d="" fill="#FEAD3B" transform="translate(0,0)"/>
<path d="" fill="#FDAF3B" transform="translate(0,0)"/>
<path d="" fill="#FFAE3D" transform="translate(0,0)"/>
<path d="" fill="#FCAB39" transform="translate(0,0)"/>
<path d="" fill="#FBA737" transform="translate(0,0)"/>
<path d="" fill="#FFAC38" transform="translate(0,0)"/>
<path d="" fill="#FEAC3D" transform="translate(0,0)"/>
<path d="" fill="#FFAF39" transform="translate(0,0)"/>
<path d="" fill="#FFAD3C" transform="translate(0,0)"/>
<path d="" fill="#FCA73C" transform="translate(0,0)"/>
<path d="" fill="#FFAD3B" transform="translate(0,0)"/>
<path d="" fill="#F1A338" transform="translate(0,0)"/>
<path d="" fill="#FFAD39" transform="translate(0,0)"/>
<path d="" fill="#FDAA38" transform="translate(0,0)"/>
<path d="" fill="#FFAE3B" transform="translate(0,0)"/>
<path d="" fill="#FFAF3C" transform="translate(0,0)"/>
<path d="" fill="#FAAB39" transform="translate(0,0)"/>
<path d="" fill="#FDAA3B" transform="translate(0,0)"/>
<path d="" fill="#FDAA3A" transform="translate(0,0)"/>
<path d="" fill="#FFAD3D" transform="translate(0,0)"/>
<path d="" fill="#FFAD39" transform="translate(0,0)"/>
<path d="" fill="#FFAA39" transform="translate(0,0)"/>
<path d="" fill="#F8A434" transform="translate(0,0)"/>
<path d="" fill="#FFAD39" transform="translate(0,0)"/>
<path d="" fill="#FCAC3A" transform="translate(0,0)"/>
<path d="" fill="#FDAB3B" transform="translate(0,0)"/>
<path d="" fill="#FFAE3C" transform="translate(0,0)"/>
<path d="" fill="#FEAC3C" transform="translate(0,0)"/>
<path d="" fill="#FFAF3A" transform="translate(0,0)"/>
<path d="" fill="#FFAE3D" transform="translate(0,0)"/>
<path d="" fill="#FFB03D" transform="translate(0,0)"/>
<path d="" fill="#FFAD3B" transform="translate(0,0)"/>
<path d="" fill="#FFAE3A" transform="translate(0,0)"/>
<path d="" fill="#FFAE3E" transform="translate(0,0)"/>
<path d="" fill="#FEAB3A" transform="translate(0,0)"/>
<path d="" fill="#FFAD3C" transform="translate(0,0)"/>
<path d="" fill="#FEA83B" transform="translate(0,0)"/>
<path d="" fill="#FEB03D" transform="translate(0,0)"/>
<path d="" fill="#FEAC3E" transform="translate(0,0)"/>
<path d="" fill="#FBAA3E" transform="translate(0,0)"/>
<path d="" fill="#F6A236" transform="translate(0,0)"/>
<path d="" fill="#FEAE3B" transform="translate(0,0)"/>
<path d="" fill="#F9A439" transform="translate(0,0)"/>
<path d="" fill="#FFAE3C" transform="translate(0,0)"/>
<path d="" fill="#FFAF3D" transform="translate(0,0)"/>
<path d="" fill="#FFAF3C" transform="translate(0,0)"/>
<path d="" fill="#F6A538" transform="translate(0,0)"/>
<path d="" fill="#FFAC3C" transform="translate(0,0)"/>
<path d="" fill="#FFAD3C" transform="translate(0,0)"/>
<path d="" fill="#FFAE3C" transform="translate(0,0)"/>
<path d="" fill="#FFAE3C" transform="translate(0,0)"/>
<path d="" fill="#FFAE3D" transform="translate(0,0)"/>
<path d="" fill="#FFAD3C" transform="translate(0,0)"/>
<path d="" fill="#FFAD39" transform="translate(0,0)"/>
<path d="" fill="#FFB13C" transform="translate(0,0)"/>
<path d="" fill="#FEAC3C" transform="translate(0,0)"/>
<path d="" fill="#FFAD3B" transform="translate(0,0)"/>
<path d="" fill="#F5A539" transform="translate(0,0)"/>
<path d="" fill="#FFAF3C" transform="translate(0,0)"/>
<path d="" fill="#FEAD3B" transform="translate(0,0)"/>
<path d="" fill="#F7A439" transform="translate(0,0)"/>
<path d="" fill="#FFAD3C" transform="translate(0,0)"/>
<path d="" fill="#FFAB3D" transform="translate(0,0)"/>
<path d="" fill="#FEAE3A" transform="translate(0,0)"/>
<path d="" fill="#FFAC3D" transform="translate(0,0)"/>
<path d="" fill="#FFAF3C" transform="translate(0,0)"/>
<path d="" fill="#FEAD3C" transform="translate(0,0)"/>
<path d="" fill="#FFAC3F" transform="translate(0,0)"/>
<path d="" fill="#FFAE3C" transform="translate(0,0)"/>
<path d="" fill="#FDAE3B" transform="translate(0,0)"/>
<path d="" fill="#FFAC3F" transform="translate(0,0)"/>
<path d="" fill="#FFAE3D" transform="translate(0,0)"/>
<path d="" fill="#FFAE3C" transform="translate(0,0)"/>
<path d="" fill="#FFAE3A" transform="translate(0,0)"/>
<path d="" fill="#FFA93D" transform="translate(0,0)"/>
<path d="" fill="#FFAE3D" transform="translate(0,0)"/>
<path d="" fill="#FFAD3E" transform="translate(0,0)"/>
<path d="" fill="#FFAD3D" transform="translate(0,0)"/>
<path d="" fill="#FFAE3B" transform="translate(0,0)"/>
<path d="" fill="#FDAB3D" transform="translate(0,0)"/>
<path d="" fill="#FDAE3B" transform="translate(0,0)"/>
<path d="" fill="#FCA93B" transform="translate(0,0)"/>
<path d="" fill="#FFAD3C" transform="translate(0,0)"/>
<path d="" fill="#FFAF3C" transform="translate(0,0)"/>
<path d="" fill="#FFAC3D" transform="translate(0,0)"/>
<path d="" fill="#FCAB3C" transform="translate(0,0)"/>
<path d="" fill="#FFAD3E" transform="translate(0,0)"/>
<path d="" fill="#FFAD3C" transform="translate(0,0)"/>
<path d="" fill="#FFAB3D" transform="translate(0,0)"/>
<path d="" fill="#FFB13C" transform="translate(0,0)"/>
<path d="" fill="#FFAF3C" transform="translate(0,0)"/>
<path d="" fill="#FEAB3B" transform="translate(0,0)"/>
<path d="" fill="#FFAC3D" transform="translate(0,0)"/>
<path d="" fill="#FCAC3C" transform="translate(0,0)"/>
<path d="" fill="#FBAC3C" transform="translate(0,0)"/>
<path d="" fill="#FEAD3E" transform="translate(0,0)"/>
<path d="" fill="#FAA93B" transform="translate(0,0)"/>
<path d="" fill="#FFAC39" transform="translate(0,0)"/>
<path d="" fill="#FFB13D" transform="translate(0,0)"/>
<path d="" fill="#FFAF3B" transform="translate(0,0)"/>
<path d="" fill="#FFAD3C" transform="translate(0,0)"/>
<path d="" fill="#FCAD3E" transform="translate(0,0)"/>
<path d="" fill="#FFAE3C" transform="translate(0,0)"/>
<path d="" fill="#FFAE3E" transform="translate(0,0)"/>
<path d="" fill="#FFAF3D" transform="translate(0,0)"/>
<path d="" fill="#FFAD3E" transform="translate(0,0)"/>
<path d="" fill="#FEAD39" transform="translate(0,0)"/>
<path d="" fill="#FFAB3B" transform="translate(0,0)"/>
<path d="" fill="#FFAF3E" transform="translate(0,0)"/>
<path d="" fill="#FFAE3A" transform="translate(0,0)"/>
<path d="" fill="#FFAC3D" transform="translate(0,0)"/>
<path d="" fill="#FFAB3B" transform="translate(0,0)"/>
<path d="" fill="#FFAC3A" transform="translate(0,0)"/>
<path d="" fill="#FDA939" transform="translate(0,0)"/>
<path d="" fill="#FEAD3C" transform="translate(0,0)"/>
<path d="" fill="#FDB03B" transform="translate(0,0)"/>
<path d="" fill="#FEAD3B" transform="translate(0,0)"/>
<path d="" fill="#FCA73B" transform="translate(0,0)"/>
<path d="" fill="#FFAE3E" transform="translate(0,0)"/>
<path d="" fill="#FFAF3B" transform="translate(0,0)"/>
<path d="" fill="#FDAD3B" transform="translate(0,0)"/>
<path d="" fill="#F8A639" transform="translate(0,0)"/>
<path d="" fill="#FFAD3D" transform="translate(0,0)"/>
<path d="" fill="#FFAD3C" transform="translate(0,0)"/>
<path d="" fill="#FFAE3F" transform="translate(0,0)"/>
<path d="" fill="#FFAC3C" transform="translate(0,0)"/>
<path d="" fill="#FCAB3D" transform="translate(0,0)"/>
<path d="" fill="#FFAE3C" transform="translate(0,0)"/>
<path d="" fill="#FFAC3B" transform="translate(0,0)"/>
<path d="" fill="#FFAC3A" transform="translate(0,0)"/>
<path d="" fill="#FFAF3E" transform="translate(0,0)"/>
<path d="" fill="#FFAC3C" transform="translate(0,0)"/>
<path d="" fill="#FFAC3A" transform="translate(0,0)"/>
<path d="" fill="#FFAE3B" transform="translate(0,0)"/>
<path d="" fill="#FEAF39" transform="translate(0,0)"/>
<path d="" fill="#FFAB3C" transform="translate(0,0)"/>
<path d="" fill="#FFAD3B" transform="translate(0,0)"/>
<path d="" fill="#FFAF3C" transform="translate(0,0)"/>
<path d="" fill="#FEAB3B" transform="translate(0,0)"/>
<path d="" fill="#FFAD3A" transform="translate(0,0)"/>
<path d="" fill="#FFAE3E" transform="translate(0,0)"/>
<path d="" fill="#FFAE3E" transform="translate(0,0)"/>
<path d="" fill="#FAAA3B" transform="translate(0,0)"/>
<path d="" fill="#FFAC3B" transform="translate(0,0)"/>
<path d="" fill="#FFAF3D" transform="translate(0,0)"/>
<path d="" fill="#FFAE3C" transform="translate(0,0)"/>
<path d="" fill="#FFAD3C" transform="translate(0,0)"/>
<path d="" fill="#FFAE3C" transform="translate(0,0)"/>
<path d="" fill="#FEAE3C" transform="translate(0,0)"/>
<path d="" fill="#FFAE3A" transform="translate(0,0)"/>
<path d="" fill="#FEAF3C" transform="translate(0,0)"/>
<path d="" fill="#FFAC3B" transform="translate(0,0)"/>
<path d="" fill="#FFAC3A" transform="translate(0,0)"/>
<path d="" fill="#FFAC3C" transform="translate(0,0)"/>
<path d="" fill="#FFAE3E" transform="translate(0,0)"/>
<path d="" fill="#FEAD38" transform="translate(0,0)"/>
<path d="" fill="#FFAD3C" transform="translate(0,0)"/>
<path d="" fill="#FFAE3C" transform="translate(0,0)"/>
<path d="" fill="#FFAD3B" transform="translate(0,0)"/>
<path d="" fill="#FFAF3E" transform="translate(0,0)"/>
<path d="" fill="#FFAC3A" transform="translate(0,0)"/>
<path d="" fill="#FFAE3C" transform="translate(0,0)"/>
<path d="" fill="#FFAC3A" transform="translate(0,0)"/>
<path d="" fill="#FBAB3A" transform="translate(0,0)"/>
<path d="" fill="#FFAD3A" transform="translate(0,0)"/>
<path d="" fill="#FEAB3C" transform="translate(0,0)"/>
<path d="" fill="#FFAD3C" transform="translate(0,0)"/>
<path d="" fill="#FFAD3C" transform="translate(0,0)"/>
<path d="" fill="#FFAF3B" transform="translate(0,0)"/>
<path d="" fill="#FFAF3B" transform="translate(0,0)"/>
<path d="" fill="#FFAE3A" transform="translate(0,0)"/>
<path d="" fill="#FCAB3A" transform="translate(0,0)"/>
<path d="" fill="#FFAD3D" transform="translate(0,0)"/>
<path d="" fill="#FFAD3B" transform="translate(0,0)"/>
<path d="" fill="#FFAC3E" transform="translate(0,0)"/>
<path d="" fill="#FFAC3D" transform="translate(0,0)"/>
<path d="" fill="#FFAF3E" transform="translate(0,0)"/>
<path d="" fill="#FFAB3B" transform="translate(0,0)"/>
<path d="" fill="#FFAD3B" transform="translate(0,0)"/>
<path d="" fill="#FFAC3B" transform="translate(0,0)"/>
<path d="" fill="#FFAB3A" transform="translate(0,0)"/>
<path d="" fill="#FFAB3C" transform="translate(0,0)"/>
<path d="" fill="#FEAF3D" transform="translate(0,0)"/>
<path d="" fill="#FDAB3B" transform="translate(0,0)"/>
<path d="" fill="#FDAC3C" transform="translate(0,0)"/>
<path d="" fill="#FEAC3C" transform="translate(0,0)"/>
<path d="" fill="#FDAC3B" transform="translate(0,0)"/>
<path d="" fill="#FFAE3C" transform="translate(0,0)"/>
<path d="" fill="#FFAD3A" transform="translate(0,0)"/>
<path d="" fill="#FFAD3A" transform="translate(0,0)"/>
<path d="" fill="#FFAD3D" transform="translate(0,0)"/>
<path d="" fill="#FFAE3E" transform="translate(0,0)"/>
<path d="" fill="#FFAA3C" transform="translate(0,0)"/>
<path d="" fill="#FFAE3C" transform="translate(0,0)"/>
<path d="" fill="#FDAD3D" transform="translate(0,0)"/>
<path d="" fill="#FDAB3A" transform="translate(0,0)"/>
<path d="" fill="#FFAD3C" transform="translate(0,0)"/>
<path d="" fill="#FEAE3C" transform="translate(0,0)"/>
<path d="" fill="#FDB03C" transform="translate(0,0)"/>
<path d="" fill="#FDAC3C" transform="translate(0,0)"/>
<path d="" fill="#FEAA3C" transform="translate(0,0)"/>
<path d="" fill="#FFAC3C" transform="translate(0,0)"/>
<path d="" fill="#FEAE3C" transform="translate(0,0)"/>
<path d="" fill="#FFAB38" transform="translate(0,0)"/>
<path d="" fill="#FFA636" transform="translate(0,0)"/>
<path d="" fill="#FFA93A" transform="translate(0,0)"/>
<path d="" fill="#FFAC3A" transform="translate(0,0)"/>
<path d="" fill="#FEAB3C" transform="translate(0,0)"/>
<path d="" fill="#FFAC3A" transform="translate(0,0)"/>
<path d="" fill="#FDAC3A" transform="translate(0,0)"/>
<path d="" fill="#FDAE3C" transform="translate(0,0)"/>
<path d="" fill="#FCA939" transform="translate(0,0)"/>
<path d="" fill="#FAA93D" transform="translate(0,0)"/>
<path d="" fill="#FBAA3A" transform="translate(0,0)"/>
<path d="" fill="#F9A939" transform="translate(0,0)"/>
<path d="" fill="#FFAC3A" transform="translate(0,0)"/>
<path d="" fill="#FFAD3C" transform="translate(0,0)"/>
<path d="" fill="#FFB03D" transform="translate(0,0)"/>
<path d="" fill="#FEAC3C" transform="translate(0,0)"/>
<path d="" fill="#FFAD3A" transform="translate(0,0)"/>
<path d="" fill="#FEAE3C" transform="translate(0,0)"/>
<path d="" fill="#FAA738" transform="translate(0,0)"/>
<path d="" fill="#F7A73A" transform="translate(0,0)"/>
<path d="" fill="#F7A93C" transform="translate(0,0)"/>
<path d="" fill="#F9A939" transform="translate(0,0)"/>
<path d="" fill="#FAAA3A" transform="translate(0,0)"/>
<path d="" fill="#FAAD3D" transform="translate(0,0)"/>
<path d="" fill="#FAA838" transform="translate(0,0)"/>
<path d="" fill="#FBAA3B" transform="translate(0,0)"/>
<path d="" fill="#FCAA38" transform="translate(0,0)"/>
<path d="" fill="#FAAE3D" transform="translate(0,0)"/>
<path d="" fill="#FBAD3B" transform="translate(0,0)"/>
<path d="" fill="#FAAB3C" transform="translate(0,0)"/>
<path d="" fill="#FDAE3C" transform="translate(0,0)"/>
<path d="" fill="#FBAF3F" transform="translate(0,0)"/>
<path d="" fill="#FBB03D" transform="translate(0,0)"/>
<path d="" fill="#FCAD3B" transform="translate(0,0)"/>
<path d="" fill="#FBAE3C" transform="translate(0,0)"/>
<path d="" fill="#F9AD3D" transform="translate(0,0)"/>
<path d="" fill="#FAAD3B" transform="translate(0,0)"/>
<path d="" fill="#FEB23D" transform="translate(0,0)"/>
<path d="" fill="#FDAD3E" transform="translate(0,0)"/>
<path d="" fill="#FCAF3C" transform="translate(0,0)"/>
<path d="" fill="#FBAB3B" transform="translate(0,0)"/>
<path d="" fill="#FDAD3D" transform="translate(0,0)"/>
<path d="" fill="#FCAA3B" transform="translate(0,0)"/>
<path d="" fill="#FCAC3D" transform="translate(0,0)"/>
<path d="" fill="#FAAE39" transform="translate(0,0)"/>
<path d="" fill="#FBA93B" transform="translate(0,0)"/>
<path d="" fill="#FCAE3D" transform="translate(0,0)"/>
<path d="" fill="#FDAD3D" transform="translate(0,0)"/>
<path d="" fill="#FAAD3E" transform="translate(0,0)"/>
<path d="" fill="#FEAC3B" transform="translate(0,0)"/>
<path d="" fill="#FEAD3C" transform="translate(0,0)"/>
<path d="" fill="#FCAD3C" transform="translate(0,0)"/>
<path d="" fill="#FBA938" transform="translate(0,0)"/>
<path d="" fill="#FBAD3A" transform="translate(0,0)"/>
<path d="" fill="#FBAE3C" transform="translate(0,0)"/>
<path d="" fill="#FDAC3A" transform="translate(0,0)"/>
<path d="" fill="#FCAA3C" transform="translate(0,0)"/>
<path d="" fill="#FEAB3A" transform="translate(0,0)"/>
<path d="" fill="#F9A639" transform="translate(0,0)"/>
<path d="" fill="#FAA939" transform="translate(0,0)"/>
<path d="" fill="#F7A83A" transform="translate(0,0)"/>
<path d="" fill="#F5A639" transform="translate(0,0)"/>
<path d="" fill="#F5A436" transform="translate(0,0)"/>
<path d="" fill="#F7A538" transform="translate(0,0)"/>
<path d="" fill="#F5A335" transform="translate(0,0)"/>
<path d="" fill="#F4A63A" transform="translate(0,0)"/>
<path d="" fill="#F8A837" transform="translate(0,0)"/>
<path d="" fill="#F6A83C" transform="translate(0,0)"/>
<path d="" fill="#F7A63A" transform="translate(0,0)"/>
<path d="" fill="#F7A739" transform="translate(0,0)"/>
<path d="" fill="#FBAA39" transform="translate(0,0)"/>
<path d="" fill="#FBAA3A" transform="translate(0,0)"/>
<path d="" fill="#FBAB3B" transform="translate(0,0)"/>
<path d="" fill="#FEA93A" transform="translate(0,0)"/>
<path d="" fill="#FDAC3B" transform="translate(0,0)"/>
<path d="" fill="#271700" transform="translate(0,0)"/>
<path d="" fill="#FBAC3B" transform="translate(0,0)"/>
<path d="" fill="#FCAD3E" transform="translate(0,0)"/>
<path d="" fill="#FFAC3A" transform="translate(0,0)"/>
<path d="" fill="#FFAD3C" transform="translate(0,0)"/>
<path d="" fill="#FCAA3B" transform="translate(0,0)"/>
<path d="" fill="#FFAD3C" transform="translate(0,0)"/>
<path d="" fill="#F9A938" transform="translate(0,0)"/>
<path d="" fill="#FDAB3D" transform="translate(0,0)"/>
</svg>
